<!--Created with Inkscape (http://www.inkscape.org/)--><!--NANOO LOGOMARK Version: 1.2.0 Author: Adnan Slamet Wibowo (Nanoolabs) Date: 2026-05-08 Last Updated: 2026-05-08 URL: https://nanoolabs.dev Brand Identity: https://nanoolabs.dev/brand This vector graphic is the intellectual property of Nanoolabs. Modifications are prohibited without explicit permission. Built to be fast, simple, and scalable.--><svg width="512" height="512" viewBox="0 0 512 512"><path d="M342.5 145.166 220.709 366.834h65.209l121.791-221.668Zm-135.008 8.621q-23.97 0-39.449 15.508-8.932 8.834-15.48 21.719v-32.909H104.29v207.291h49.104V250.17q0-16.097 4.328-26.305 4.327-10.404 12.15-15.31 7.825-4.908 17.979-4.909 15.48 0 23.802 10.993c5.66 7.197 8.415 17.732 8.489 31.603l.459 86.98 48.937-84.064-.459-13.515q-.001-26.304-7.658-44.559-7.49-18.255-21.305-27.678-13.815-9.619-32.625-9.619" style="font-weight:700;font-size:370.197px;font-family:&quot;Adwaita Sans&quot;;-inkscape-font-specification:&quot;Adwaita Sans&quot;;stroke-width:3.11963"/></svg>