<!--Created with Inkscape (http://www.inkscape.org/)--><!--NANOO LOGOMARK Version: 1.5.0 Author: Adnan Slamet Wibowo (Nanoolabs) Date: 2026-05-20 Last Updated: 2026-05-20 URL: https://nanoolabs.dev Brand Identity: https://nanoolabs.dev/brand This vector graphic is the intellectual property of Nanoolabs. Modifications are prohibited without explicit permission. Built to be fast, simple, and scalable.--><svg xmlns="http://www.w3.org/2000/svg" width="512" height="512" viewBox="0 0 512 512"><path d="M292.215 52.9q-41.435 0-68.196 26.617-15.439 15.162-26.758 37.279V60.144h-83.427l-.63 135.781 85.667 154.116-.171-131.192c.054 16.833 2.543-34.107 7.48-45.669q7.48-17.855 21.004-26.278t31.076-8.424q26.76 0 41.147 18.868c9.784 12.352 14.17 30.44 14.675 54.244l1.125 52.9 83.59 194.61-.117-265.703c-.015-30.097-4.413-55.592-13.237-76.48q-12.95-31.334-36.83-47.506-23.883-16.509-56.398-16.51"/></svg>